<svg xmlns="http://www.w3.org/2000/svg" viewBox="0 0 48 48" width="48px" height="48px">
<path fill="#1ED760" d="M24,0C10.745,0,0,10.745,0,24s10.745,24,24,24s24-10.745,24-24S37.255,0,24,0z M35.057,34.465 c-0.442,0.728-1.389,0.956-2.117,0.514c-5.797-3.542-13.083-4.347-21.671-2.382c-0.82,0.188-1.643-0.324-1.831-1.144 c-0.188-0.82,0.324-1.643,1.144-1.831c9.396-2.147,17.462-1.223,23.922,2.726C35.271,32.791,35.499,33.737,35.057,34.465z M37.945,27.959c-0.557,0.908-1.739,1.191-2.647,0.634c-6.633-4.077-16.743-5.256-24.592-2.877c-1.016,0.309-2.091-0.265-2.4-1.281 c-0.308-1.017,0.265-2.091,1.282-2.4c8.968-2.722,20.119-1.405,27.723,3.277C38.219,25.869,38.502,27.051,37.945,27.959z M38.32,21.101c-7.953-4.723-21.068-5.161-28.657-2.855c-1.219,0.37-2.508-0.319-2.878-1.537c-0.37-1.219,0.319-2.508,1.537-2.878 c8.708-2.642,23.178-2.133,32.302,3.301c1.094,0.649,1.456,2.062,0.807,3.156C40.783,21.383,39.369,21.745,38.32,21.101z"/>
</svg>
